Input #0, lavfi, from 'yuvtestsrc=duration=60:size=1920x1080:rate=30':
  Duration: N/A, start: 0.000000, bitrate: N/A
  Stream #0:0: Video: rawvideo (444P / 0x50343434), yuv444p, 1920x1080 [SAR 1:1 DAR 16:9], 30 tbr, 30 tbn, 30 tbc
Stream mapping:
  Stream #0:0 -> #0:0 (rawvideo (native) -> h264 (h264_nvenc))
Press [q] to stop, [?] for help
Output #0, mp4, to './test_results/temp_tests_gpu/test_test_50_8/output.mp4':
  Metadata:
    encoder         : Lavf58.76.100
  Stream #0:0: Video: h264 (High 4:4:4 Predictive) (avc1 / 0x31637661), yuv444p(tv, progressive), 1280x720 [SAR 1:1 DAR 16:9], q=2-31, 30 fps, 15360 tbn
    Metadata:
      encoder         : Lavc58.134.100 h264_nvenc
    Side data:
      cpb: bitrate max/min/avg: 3000000/0/0 buffer size: 4000000 vbv_delay: N/A
frame=    1 fps=0.0 q=0.0 size=       0kB time=00:00:00.00 bitrate=N/A speed=   0x    frame=    2 fps=0.8 q=0.0 size=       0kB time=00:00:00.00 bitrate=N/A speed=   0x    frame=  117 fps= 38 q=23.0 size=       0kB time=00:00:03.80 bitrate=   0.1kbits/s speed=1.24x    frame=  241 fps= 68 q=23.0 size=       0kB time=00:00:07.93 bitrate=   0.0kbits/s speed=2.23x    frame=  361 fps= 89 q=23.0 size=       0kB time=00:00:11.93 bitrate=   0.0kbits/s speed=2.94x    frame=  484 fps=106 q=23.0 size=       0kB time=00:00:16.03 bitrate=   0.0kbits/s speed=3.51x    frame=  606 fps=120 q=23.0 size=       0kB time=00:00:20.10 bitrate=   0.0kbits/s speed=3.96x    frame=  726 fps=130 q=23.0 size=       0kB time=00:00:24.10 bitrate=   0.0kbits/s speed=4.32x    frame=  836 fps=137 q=23.0 size=       0kB time=00:00:27.76 bitrate=   0.0kbits/s speed=4.56x    frame=  943 fps=143 q=23.0 size=       0kB time=00:00:31.33 bitrate=   0.0kbits/s speed=4.75x    frame= 1048 fps=148 q=23.0 size=       0kB time=00:00:34.83 bitrate=   0.0kbits/s speed= 4.9x    frame= 1125 fps=148 q=23.0 size=       0kB time=00:00:37.40 bitrate=   0.0kbits/s speed=4.92x    frame= 1206 fps=149 q=23.0 size=       0kB time=00:00:40.10 bitrate=   0.0kbits/s speed=4.95x    frame= 1302 fps=151 q=23.0 size=       0kB time=00:00:43.30 bitrate=   0.0kbits/s speed=5.03x    frame= 1385 fps=152 q=23.0 size=       0kB time=00:00:46.06 bitrate=   0.0kbits/s speed=5.06x    frame= 1462 fps=152 q=23.0 size=       0kB time=00:00:48.63 bitrate=   0.0kbits/s speed=5.06x    frame= 1544 fps=153 q=23.0 size=       0kB time=00:00:51.36 bitrate=   0.0kbits/s speed=5.08x    frame= 1623 fps=153 q=19.0 size=     256kB time=00:00:54.00 bitrate=  38.8kbits/s speed=5.09x    frame= 1702 fps=153 q=23.0 size=     256kB time=00:00:56.63 bitrate=  37.0kbits/s speed=5.09x    frame= 1778 fps=153 q=23.0 size=     256kB time=00:00:59.16 bitrate=  35.5kbits/s speed=5.09x    [mp4 @ 0x6267f64a97c0] Starting second pass: moving the moov atom to the beginning of the file
frame= 1800 fps=152 q=23.0 Lsize=     293kB time=00:00:59.96 bitrate=  40.1kbits/s speed=5.08x    
video:285kB audio:0kB subtitle:0kB other streams:0kB global headers:0kB muxing overhead: 2.801454%
